<?xml version="1.0" encoding="UTF-8"?>
<svg xmlns="http://www.w3.org/2000/svg" version="1.1" viewBox="0 0 512 212">
  <defs>
    <style>
      .cls-1 {
        fill: #b1b0b0;
      }

      .cls-2 {
        fill: #383838;
      }

      .cls-3 {
        fill: #4a4848;
      }

      .cls-4 {
        fill: #d3d3d3;
      }

      .cls-5 {
        fill: #8e8d8e;
      }

      .cls-6 {
        fill: #f5f5f5;
      }

      .cls-7 {
        fill: #6c6b6b;
      }
    </style>
  </defs>
  <!-- Generator: Adobe Illustrator 29.0.0, SVG Export Plug-In . SVG Version: 1.2.0 Build 38)  -->
  <g>
    <g id="Layer_2">
      <g>
        <g>
          <path class="cls-6" d="M256,43.1c-34.7,0-62.9,28.2-62.9,62.9s28.2,62.9,62.9,62.9,62.9-28.2,62.9-62.9-28.2-62.9-62.9-62.9ZM256,166.2c-33.2,0-60.2-27-60.2-60.2s27-60.2,60.2-60.2,60.2,27,60.2,60.2-27,60.2-60.2,60.2Z"/>
          <path class="cls-4" d="M256,50.9c-30.4,0-55.1,24.7-55.1,55.1s24.7,55.1,55.1,55.1,55.1-24.7,55.1-55.1-24.7-55.1-55.1-55.1ZM256,158.5c-29,0-52.5-23.5-52.5-52.5s23.5-52.5,52.5-52.5,52.5,23.5,52.5,52.5-23.5,52.5-52.5,52.5Z"/>
          <path class="cls-1" d="M256,58.2c-26.4,0-47.8,21.4-47.8,47.8s21.4,47.8,47.8,47.8,47.8-21.4,47.8-47.8-21.4-47.8-47.8-47.8ZM256,151.5c-25.1,0-45.5-20.4-45.5-45.5s20.4-45.5,45.5-45.5,45.5,20.4,45.5,45.5-20.4,45.5-45.5,45.5Z"/>
          <path class="cls-5" d="M256,64.8c-22.8,0-41.2,18.4-41.2,41.2s18.4,41.2,41.2,41.2,41.2-18.4,41.2-41.2-18.4-41.2-41.2-41.2ZM256,145.2c-21.7,0-39.2-17.6-39.2-39.2s17.6-39.2,39.2-39.2,39.2,17.6,39.2,39.2-17.6,39.2-39.2,39.2Z"/>
          <path class="cls-7" d="M256,70.6c-19.6,0-35.4,15.9-35.4,35.4s15.8,35.4,35.4,35.4,35.4-15.8,35.4-35.4-15.8-35.4-35.4-35.4ZM256,139.8c-18.7,0-33.8-15.1-33.8-33.8s15.1-33.8,33.8-33.8,33.8,15.1,33.8,33.8-15.1,33.8-33.8,33.8Z"/>
          <path class="cls-3" d="M256,75.3c-17,0-30.7,13.7-30.7,30.7s13.7,30.7,30.7,30.7,30.7-13.7,30.7-30.7-13.7-30.7-30.7-30.7ZM256,135.4c-16.2,0-29.4-13.1-29.4-29.4s13.1-29.4,29.4-29.4,29.4,13.1,29.4,29.4-13.1,29.4-29.4,29.4Z"/>
          <path class="cls-2" d="M256,79.6c-14.7,0-26.6,11.9-26.6,26.6s11.9,26.6,26.6,26.6,26.6-11.9,26.6-26.6-11.9-26.6-26.6-26.6ZM256,131.8c-14.2,0-25.7-11.5-25.7-25.7s11.5-25.7,25.7-25.7,25.7,11.5,25.7,25.7-11.5,25.7-25.7,25.7Z"/>
        </g>
        <path class="cls-6" d="M451.3,106c0-1-87.4-.2-195.3-.2s-55.3.2-59.7-7.3c-.5,0-2,0-2.8,0-3.7,5.4-6.8,6-13.9,6.5-2.3.1-108.4,1.1-108.4,1.1,0,0,106.1.8,108.4,1.1s10.9.3,13.9,6.3h2.8c4.3-7.4,41.3-7.2,59.7-7.2,107.8,0,195.3.8,195.3-.2Z"/>
        <path class="cls-6" d="M60.7,106.1c0-1,87.4-.2,195.3-.2,19.7,0,55.4.2,59.7-7.3.5,0,1.9,0,2.7,0,3.7,5.4,6.8,6,13.9,6.5,2.3.1,108.4,1.1,108.4,1.1,0,0-106.1.8-108.4,1.1s-11,.3-13.9,6.3h-2.7c-4.3-7.4-41.3-7.2-59.7-7.2-107.8,0-195.3.8-195.3-.2Z"/>
      </g>
    </g>
  </g>
</svg>