<?xml version="1.0" encoding="UTF-8"?>
<svg xmlns="http://www.w3.org/2000/svg" version="1.1" viewBox="0 0 512 512">
  <defs>
    <style>
      .cls-1 {
        fill: #b1b0b0;
      }

      .cls-2 {
        fill: #383838;
      }

      .cls-3 {
        fill: #4a4848;
      }

      .cls-4 {
        fill: #d3d3d3;
      }

      .cls-5 {
        fill: #8e8d8e;
      }

      .cls-6 {
        display: none;
      }

      .cls-7 {
        fill: #f5f5f5;
      }

      .cls-8 {
        fill: #282526;
      }

      .cls-9 {
        fill: #6c6b6b;
      }
    </style>
  </defs>
  <!-- Generator: Adobe Illustrator 29.0.0, SVG Export Plug-In . SVG Version: 1.2.0 Build 38)  -->
  <g>
    <g id="Layer_3" class="cls-6">
      <rect class="cls-8" x=".36" y="-.94" width="513" height="513"/>
    </g>
    <g id="Layer_2">
      <g>
        <path class="cls-7" d="M256,193.1c-34.74,0-62.9,28.16-62.9,62.9s28.16,62.9,62.9,62.9,62.9-28.16,62.9-62.9-28.16-62.9-62.9-62.9ZM256,316.19c-33.24,0-60.19-26.95-60.19-60.19s26.95-60.19,60.19-60.19,60.19,26.95,60.19,60.19-26.95,60.19-60.19,60.19Z"/>
        <path class="cls-4" d="M256,200.91c-30.42,0-55.09,24.67-55.09,55.09s24.67,55.09,55.09,55.09,55.09-24.67,55.09-55.09-24.67-55.09-55.09-55.09ZM256,308.46c-28.97,0-52.46-23.49-52.46-52.46s23.49-52.46,52.46-52.46,52.46,23.49,52.46,52.46-23.49,52.46-52.46,52.46Z"/>
        <path class="cls-1" d="M256,208.23c-26.38,0-47.77,21.39-47.77,47.77s21.39,47.77,47.77,47.77,47.77-21.39,47.77-47.77-21.39-47.77-47.77-47.77ZM256,301.5c-25.13,0-45.5-20.37-45.5-45.5s20.37-45.5,45.5-45.5,45.5,20.37,45.5,45.5-20.37,45.5-45.5,45.5Z"/>
        <path class="cls-5" d="M256,214.82c-22.75,0-41.18,18.43-41.18,41.18s18.43,41.18,41.18,41.18,41.18-18.43,41.18-41.18-18.43-41.18-41.18-41.18ZM256,295.22c-21.66,0-39.22-17.56-39.22-39.22s17.56-39.22,39.22-39.22,39.22,17.56,39.22,39.22-17.56,39.22-39.22,39.22Z"/>
        <path class="cls-9" d="M256,220.59c-19.56,0-35.41,15.85-35.41,35.41s15.85,35.41,35.41,35.41,35.41-15.85,35.41-35.41-15.85-35.41-35.41-35.41ZM256,289.8c-18.67,0-33.8-15.13-33.8-33.8s15.13-33.8,33.8-33.8,33.8,15.13,33.8,33.8-15.13,33.8-33.8,33.8Z"/>
        <path class="cls-3" d="M256,225.32c-16.95,0-30.68,13.73-30.68,30.68s13.73,30.68,30.68,30.68,30.68-13.73,30.68-30.68-13.73-30.68-30.68-30.68ZM256,285.36c-16.22,0-29.36-13.14-29.36-29.36s13.14-29.36,29.36-29.36,29.36,13.14,29.36,29.36-13.14,29.36-29.36,29.36Z"/>
        <path class="cls-2" d="M256,229.55c-14.72,0-26.64,11.92-26.64,26.63s11.92,26.64,26.64,26.64,26.64-11.92,26.64-26.64-11.92-26.63-26.64-26.63ZM255.99,281.84c-14.19,0-25.67-11.51-25.67-25.73s11.48-25.73,25.67-25.73,25.67,11.52,25.67,25.73-11.49,25.73-25.67,25.73Z"/>
      </g>
      <path class="cls-7" d="M451.27,256c0-1.02-87.44-.21-195.29-.21-19.69,0-55.35.21-59.71-7.32-.47,0-1.97,0-2.75,0-3.66,5.41-6.77,5.99-13.93,6.47-2.34.15-108.4,1.05-108.4,1.05,0,0,106.05.75,108.4,1.05s10.94.3,13.92,6.31h2.75c4.31-7.39,41.31-7.17,59.73-7.17,107.85,0,195.29.82,195.29-.2Z"/>
      <path class="cls-7" d="M60.72,256.08c0-1.02,87.44-.21,195.29-.21,19.69,0,55.36.21,59.73-7.32.47,0,1.95,0,2.73,0,3.66,5.41,6.79,5.99,13.95,6.47,2.34.15,108.4,1.05,108.4,1.05,0,0-106.05.75-108.4,1.05s-10.96.3-13.94,6.31h-2.73c-4.31-7.39-41.31-7.17-59.73-7.17-107.85,0-195.29.82-195.29-.2Z"/>
      <g>
        <path class="cls-7" d="M72.79,282.34v-21.84h2.5c3.4,5.24,11.39,17.44,12.76,19.81h.03c-.19-3.15-.16-6.37-.16-9.92v-9.89h1.72v21.84h-2.31c-3.25-5.05-11.36-17.75-12.92-20.16h-.03c.16,2.87.12,6.05.12,10.02v10.14h-1.72Z"/>
        <path class="cls-7" d="M95.6,274.73c.03,4.03,2.06,6.52,5.06,6.52s3.93-1.65,4.49-2.93h1.59c-.66,2.06-2.31,4.4-6.15,4.4-4.74,0-6.58-4.09-6.58-8.05,0-4.46,2.22-8.3,6.77-8.3,4.81,0,6.33,4.15,6.33,7.08,0,.44,0,.87-.03,1.28h-11.48ZM105.49,273.36c-.03-3.09-1.72-5.52-4.77-5.52-3.21,0-4.68,2.25-5.02,5.52h9.8Z"/>
        <path class="cls-7" d="M123.71,274.51c0,4.34-2.4,8.21-7.05,8.21-4.21,0-6.83-3.46-6.83-8.17,0-4.46,2.47-8.18,6.99-8.18,4.15,0,6.9,3.25,6.9,8.14ZM111.48,274.54c0,3.71,2,6.71,5.3,6.71s5.27-2.78,5.27-6.71c0-3.68-1.87-6.71-5.34-6.71s-5.24,2.96-5.24,6.71Z"/>
        <path class="cls-7" d="M144.77,276.51c-1.03,3.46-3.59,6.08-8.21,6.08-6.27,0-9.58-4.99-9.58-11.14s3.25-11.26,9.61-11.26c4.71,0,7.49,2.62,8.21,6.27h-1.69c-1-2.84-2.84-4.71-6.62-4.71-5.43,0-7.71,4.96-7.71,9.67s2.25,9.61,7.83,9.61c3.56,0,5.37-1.84,6.46-4.52h1.69Z"/>
        <path class="cls-7" d="M161.53,274.51c0,4.34-2.4,8.21-7.05,8.21-4.21,0-6.83-3.46-6.83-8.17,0-4.46,2.47-8.18,6.99-8.18,4.15,0,6.9,3.25,6.9,8.14ZM149.29,274.54c0,3.71,2,6.71,5.3,6.71s5.27-2.78,5.27-6.71c0-3.68-1.87-6.71-5.34-6.71s-5.24,2.96-5.24,6.71Z"/>
        <path class="cls-7" d="M165.39,270.99c0-2.62-.03-3.74-.03-4.24h1.53c.03.5.06,1.5.06,3.5.9-2.34,2.9-3.74,5.43-3.87v1.68c-3.25.22-5.43,2.47-5.43,6.18v8.11h-1.56v-11.36Z"/>
        <path class="cls-7" d="M175.6,274.73c.03,4.03,2.06,6.52,5.06,6.52s3.93-1.65,4.49-2.93h1.59c-.66,2.06-2.31,4.4-6.15,4.4-4.74,0-6.58-4.09-6.58-8.05,0-4.46,2.22-8.3,6.77-8.3,4.81,0,6.33,4.15,6.33,7.08,0,.44,0,.87-.03,1.28h-11.48ZM185.49,273.36c-.03-3.09-1.72-5.52-4.77-5.52-3.21,0-4.68,2.25-5.02,5.52h9.8Z"/>
      </g>
      <g>
        <path class="cls-7" d="M328.54,229.19h1.69v9.52h13.11v-9.52h1.68v21.84h-1.68v-10.77h-13.11v10.77h-1.69v-21.84Z"/>
        <path class="cls-7" d="M363.27,243.2c0,4.34-2.4,8.21-7.05,8.21-4.21,0-6.83-3.46-6.83-8.17,0-4.46,2.47-8.18,6.99-8.18,4.15,0,6.9,3.25,6.9,8.14ZM351.04,243.23c0,3.71,2,6.71,5.3,6.71s5.27-2.78,5.27-6.71c0-3.68-1.87-6.71-5.34-6.71s-5.24,2.96-5.24,6.71Z"/>
        <path class="cls-7" d="M367.13,239.68c0-2.62-.03-3.74-.03-4.24h1.53c.03.5.06,1.5.06,3.5.91-2.34,2.9-3.74,5.43-3.87v1.68c-3.25.22-5.43,2.47-5.43,6.18v8.11h-1.56v-11.36Z"/>
        <path class="cls-7" d="M377,228.04h1.56v3.03h-1.56v-3.03ZM377,235.43h1.56v15.6h-1.56v-15.6Z"/>
        <path class="cls-7" d="M382.05,249.6l9.86-12.7h-9.36v-1.47h11.17v1.5l-9.74,12.64h10.08l-.37,1.47h-11.64v-1.44Z"/>
        <path class="cls-7" d="M409.82,243.2c0,4.34-2.4,8.21-7.05,8.21-4.21,0-6.83-3.46-6.83-8.17,0-4.46,2.47-8.18,6.99-8.18,4.15,0,6.9,3.25,6.9,8.14ZM397.59,243.23c0,3.71,2,6.71,5.3,6.71s5.27-2.78,5.27-6.71c0-3.68-1.87-6.71-5.34-6.71s-5.24,2.96-5.24,6.71Z"/>
        <path class="cls-7" d="M413.69,239.36c0-1.37,0-2.68-.03-3.93h1.53c.06.5.09,2.53.06,2.96.69-1.59,1.97-3.34,5.18-3.34,2.78,0,5.24,1.56,5.24,5.87v10.11h-1.56v-9.86c0-2.78-1.16-4.59-3.87-4.59-3.71,0-4.99,3.09-4.99,6.49v7.96h-1.56v-11.67Z"/>
        <path class="cls-7" d="M430.69,246.73c.53,2.03,1.97,3.25,4.43,3.25,2.78,0,3.9-1.28,3.9-3.03s-.75-2.65-4.24-3.5c-4.03-.97-5.02-2.18-5.02-4.24s1.62-4.15,5.15-4.15,5.21,2.15,5.46,4.37h-1.56c-.28-1.31-1.31-2.93-3.96-2.93s-3.5,1.34-3.5,2.59c0,1.44.75,2.15,3.84,2.9,4.4,1.06,5.49,2.5,5.49,4.84,0,2.84-2.31,4.59-5.59,4.59-3.56,0-5.55-1.87-5.99-4.68h1.59Z"/>
      </g>
    </g>
  </g>
</svg>
